<?xml version="1.0" encoding="UTF-8" standalone="no"?>
<!DOCTYPE svg PUBLIC "-//W3C//DTD SVG 1.1//EN" "http://www.w3.org/Graphics/SVG/1.1/DTD/svg11.dtd">
<svg version="1.1" xmlns="http://www.w3.org/2000/svg" xmlns:xlink="http://www.w3.org/1999/xlink" preserveAspectRatio="xMidYMid meet" viewBox="0 0 640 640" width="640" height="640"><defs><path d="M239.79 419.99C239.79 430.99 230.87 439.91 219.86 439.91C208.86 439.91 199.94 430.99 199.94 419.99C199.94 408.99 208.87 400.06 219.86 400.06C219.86 400.06 219.86 400.06 219.86 400.06C233.15 406.01 239.79 412.66 239.79 419.99ZM297.04 161.76C384.53 149.15 465.67 209.86 478.28 297.35C490.89 384.84 430.18 465.98 342.69 478.59C341.71 478.74 340.77 478.74 339.8 478.85C340.1 478.81 342.46 478.48 342.76 478.44C331.82 480.01 321.7 472.42 320.11 461.49C318.54 450.56 326.13 440.41 337.06 438.82C337.06 438.81 337.03 438.76 337.03 438.75C337.06 438.75 337.08 438.75 337.11 438.75C402.71 429.3 448.2 368.47 438.75 302.87C429.3 237.26 368.48 191.77 302.87 201.22C237.3 210.67 191.77 271.5 201.23 337.1C201.23 337.13 201.23 337.15 201.25 337.15C201.25 337.15 201.22 337.16 201.18 337.18C201.18 337.18 201.18 337.18 201.18 337.18C202.75 348.11 195.16 358.24 184.23 359.82C173.3 361.39 163.15 353.81 161.56 342.88C161.6 343.18 161.96 345.56 162 345.86C161.86 344.88 161.59 343.96 161.45 342.99C161.45 342.99 161.45 342.99 161.45 342.99C193.52 230.58 238.71 170.17 297.04 161.76ZM509.95 100.01C526.37 100.01 539.68 113.19 539.94 129.59C539.94 129.68 539.94 130.44 539.94 130.53C539.68 146.93 526.37 160.11 509.95 160.11C493.35 160.11 479.89 146.65 479.89 130.05C479.89 130.05 479.89 130.05 479.89 130.05C488.86 110.02 498.88 100.01 509.95 100.01ZM420.12 640C400.09 640 239.89 640 219.86 640C136.41 640 88.16 620.34 53.4 585.2C19.08 550.54 0 502.16 0 420.14C0 400.11 0 239.91 0 219.88C0 137.83 19.08 89.48 53.4 54.82C88.16 19.67 136.41 0 219.86 0C239.89 0 400.09 0 420.11 0C503.57 0 551.82 19.67 586.6 54.82C588.83 57.05 590.87 59.5 592.93 61.92C597.15 65.58 599.88 70.94 599.88 76.97C599.88 88.02 590.93 96.97 579.88 96.97C573.84 96.97 568.48 94.23 564.82 89.99C564.79 90.01 564.59 90.18 564.56 90.2C562.5 87.75 560.57 85.21 558.29 82.92C527.87 52.16 482.96 40.09 409.92 40.09C391.92 40.09 247.96 40.09 229.97 40.09C156.95 40.09 112.13 52.16 81.71 82.92C51.68 113.25 40 158.28 40 230.05C40 248.05 40 392.02 40 410.02C40 481.82 51.68 526.73 81.71 557.05C112.13 587.8 156.95 600 229.97 600C247.97 600 391.94 600 409.94 600C482.98 600 527.89 587.8 558.31 557.05C588.34 526.73 599.9 481.82 599.9 410.02C599.9 392.02 599.9 248.06 599.9 230.06C599.9 212.58 599.18 196.73 597.72 182.26C597.73 182.26 597.8 182.24 597.81 182.24C596.73 171.21 604.72 161.35 615.77 160.18C626.84 159.04 636.77 167.08 637.9 178.13C637.93 178.42 637.9 178.69 637.9 178.98C637.91 178.98 637.94 178.98 637.95 178.98C639.16 191.72 640 205.07 640 219.88C640 239.91 640 400.11 640 420.13C640 502.16 620.9 550.54 586.61 585.2C586.61 585.2 586.61 585.2 586.61 585.2C531.25 621.73 475.75 640 420.12 640Z" id="b1ck6Bokvf"></path></defs><g><g><g><use xlink:href="#b1ck6Bokvf" opacity="1" fill="#da3a09" fill-opacity="1"></use><g><use xlink:href="#b1ck6Bokvf" opacity="1" fill-opacity="0" stroke="#000000" stroke-width="1" stroke-opacity="0"></use></g></g></g></g></svg>