<?xml version="1.0" encoding="utf-8"?>
<svg id="master-artboard" viewBox="0 0 1400 980" version="1.1" xmlns="http://www.w3.org/2000/svg" x="0px" y="0px" style="enable-background:new 0 0 1400 980;" width="1400px" height="980px" xmlns:xlink="http://www.w3.org/1999/xlink"><rect id="ee-background" x="0" y="0" width="1400" height="980" style="fill: white; fill-opacity: 0; pointer-events: none;"/>

<g transform="matrix(1, 0, 0, 1, 5.684341886080802e-14, 0)">
		<defs>
			<path d="M 0 0 H 1400 V 980 H 0 V 0 Z" id="SVGID_1_"/>
		</defs>
		<clipPath id="SVGID_2_">
			<use style="overflow:visible;" xlink:href="#SVGID_1_"/>
		</clipPath>
		<g class="st0" style="clip-path: url('#SVGID_2_');">
			<g>
				<g>
					<g>
						<path d="M -282.8999938964844 625 L -376.5 571 L -376.5 462.8999938964844 L -282.8999938964844 408.8999938964844 L -189.3000030517578 463 L -189.3000030517578 571 Z" class="st1" style="fill: none; stroke: rgb(192, 193, 191); stroke-width: 10; stroke-miterlimit: 10;"/>
						<path d="M -2.0999999046325684 463 L -95.69999694824219 408.8999938964844 L -95.69999694824219 300.8999938964844 L -2.0999999046325684 246.89999389648438 L 91.5 300.8999938964844 L 91.5 409 Z" class="st1" style="fill: none; stroke: rgb(192, 193, 191); stroke-width: 10; stroke-miterlimit: 10;"/>
						<path d="M -95.69999694824219 625.0999755859375 L -189.3000030517578 571 L -189.3000030517578 463 L -95.69999694824219 408.8999938964844 L -2.0999999046325684 463 L -2.0999999046325684 571.0999755859375 Z" class="st1" style="fill: none; stroke: rgb(192, 193, 191); stroke-width: 10; stroke-miterlimit: 10;"/>
						<path d="M 185.10000610351562 463 L 91.5 409 L 91.5 300.8999938964844 L 185.10000610351562 246.89999389648438 L 278.70001220703125 300.8999938964844 L 278.70001220703125 409 Z" class="st1" style="fill: none; stroke: rgb(192, 193, 191); stroke-width: 10; stroke-miterlimit: 10;"/>
					</g>
					<g>
						<path d="M 278.70001220703125 300.8999938964844 L 185.10000610351562 246.89999389648438 L 185.10000610351562 138.8000030517578 L 278.70001220703125 84.80000305175781 L 372.29998779296875 138.8000030517578 L 372.29998779296875 246.89999389648438 Z" class="st1" style="fill: none; stroke: rgb(192, 193, 191); stroke-width: 10; stroke-miterlimit: 10;"/>
						<path d="M 559.5 138.89999389648438 L 465.8999938964844 84.80000305175781 L 465.8999938964844 -23.200000762939453 L 559.5 -77.30000305175781 L 653.0999755859375 -23.200000762939453 L 653.0999755859375 84.9000015258789 Z" class="st1" style="fill: none; stroke: rgb(192, 193, 191); stroke-width: 10; stroke-miterlimit: 10;"/>
						<path d="M 465.79998779296875 301 L 372.29998779296875 246.89999389648438 L 372.29998779296875 138.89999389648438 L 465.8999938964844 84.80000305175781 L 559.5 138.89999389648438 L 559.4000244140625 247 Z" class="st1" style="fill: none; stroke: rgb(192, 193, 191); stroke-width: 10; stroke-miterlimit: 10;"/>
						<path d="M 746.5999755859375 138.89999389648438 L 653.0999755859375 84.9000015258789 L 653.0999755859375 -23.200000762939453 L 746.7000122070312 -77.19999694824219 L 840.2999877929688 -23.200000762939453 L 840.2000122070312 84.9000015258789 Z" class="st1" style="fill: none; stroke: rgb(192, 193, 191); stroke-width: 10; stroke-miterlimit: 10;"/>
					</g>
					<g>
						<path d="M 840.2999877929688 -23.200000762939453 L 746.7000122070312 -77.19999694824219 L 746.7000122070312 -185.3000030517578 L 840.2999877929688 -239.3000030517578 L 933.9000244140625 -185.3000030517578 L 933.9000244140625 -77.19999694824219 Z" class="st1" style="fill: none; stroke: rgb(192, 193, 191); stroke-width: 10; stroke-miterlimit: 10;"/>
						<path d="M 1121.0999755859375 -185.1999969482422 L 1027.5 -239.3000030517578 L 1027.5 -347.3999938964844 L 1121.0999755859375 -401.3999938964844 L 1214.699951171875 -347.29998779296875 L 1214.5999755859375 -239.3000030517578 Z" class="st1" style="fill: none; stroke: rgb(192, 193, 191); stroke-width: 10; stroke-miterlimit: 10;"/>
						<path d="M 1027.4000244140625 -23.100000381469727 L 933.7999877929688 -77.19999694824219 L 933.9000244140625 -185.3000030517578 L 1027.5 -239.3000030517578 L 1121 -185.1999969482422 L 1121 -77.19999694824219 Z" class="st1" style="fill: none; stroke: rgb(192, 193, 191); stroke-width: 10; stroke-miterlimit: 10;"/>
						<path d="M 1308.199951171875 -185.1999969482422 L 1214.5999755859375 -239.1999969482422 L 1214.699951171875 -347.29998779296875 L 1308.300048828125 -401.29998779296875 L 1401.800048828125 -347.29998779296875 L 1401.800048828125 -239.1999969482422 Z" class="st1" style="fill: none; stroke: rgb(192, 193, 191); stroke-width: 10; stroke-miterlimit: 10;"/>
					</g>
				</g>
				<g>
					<g>
						<path d="M -376.5 462.8999938964844 L -470.1000061035156 408.8999938964844 L -470 300.79998779296875 L -376.3999938964844 246.8000030517578 L -282.8999938964844 300.79998779296875 L -282.8999938964844 408.8999938964844 Z" class="st1" style="fill: none; stroke: rgb(192, 193, 191); stroke-width: 10; stroke-miterlimit: 10;"/>
						<path d="M -95.69999694824219 300.8999938964844 L -189.3000030517578 246.8000030517578 L -189.1999969482422 138.8000030517578 L -95.5999984741211 84.69999694824219 L -2.0999999046325684 138.8000030517578 L -2.0999999046325684 246.89999389648438 Z" class="st1" style="fill: none; stroke: rgb(192, 193, 191); stroke-width: 10; stroke-miterlimit: 10;"/>
						<path d="M -189.3000030517578 463 L -282.8999938964844 408.8999938964844 L -282.8999938964844 300.8999938964844 L -189.3000030517578 246.8000030517578 L -95.69999694824219 300.8999938964844 L -95.69999694824219 408.8999938964844 Z" class="st1" style="fill: none; stroke: rgb(192, 193, 191); stroke-width: 10; stroke-miterlimit: 10;"/>
						<path d="M 91.5 300.8999938964844 L -2.0999999046325684 246.89999389648438 L -2.0999999046325684 138.8000030517578 L 91.5 84.80000305175781 L 185.10000610351562 138.8000030517578 L 185.10000610351562 246.89999389648438 Z" class="st1" style="fill: none; stroke: rgb(192, 193, 191); stroke-width: 10; stroke-miterlimit: 10;"/>
					</g>
					<g>
						<path d="M 185.10000610351562 138.8000030517578 L 91.5 84.80000305175781 L 91.5 -23.299999237060547 L 185.10000610351562 -77.30000305175781 L 278.70001220703125 -23.299999237060547 L 278.70001220703125 84.80000305175781 Z" class="st1" style="fill: none; stroke: rgb(192, 193, 191); stroke-width: 10; stroke-miterlimit: 10;"/>
						<path d="M 465.8999938964844 -23.200000762939453 L 372.29998779296875 -77.30000305175781 L 372.29998779296875 -185.39999389648438 L 465.8999938964844 -239.39999389648438 L 559.5 -185.3000030517578 L 559.5 -77.30000305175781 Z" class="st1" style="fill: none; stroke: rgb(192, 193, 191); stroke-width: 10; stroke-miterlimit: 10;"/>
						<path d="M 372.29998779296875 138.89999389648438 L 278.70001220703125 84.80000305175781 L 278.70001220703125 -23.299999237060547 L 372.29998779296875 -77.30000305175781 L 465.8999938964844 -23.200000762939453 L 465.8999938964844 84.80000305175781 Z" class="st1" style="fill: none; stroke: rgb(192, 193, 191); stroke-width: 10; stroke-miterlimit: 10;"/>
						<path d="M 653.0999755859375 -23.200000762939453 L 559.5 -77.30000305175781 L 559.5 -185.3000030517578 L 653.0999755859375 -239.3000030517578 L 746.7000122070312 -185.3000030517578 L 746.7000122070312 -77.19999694824219 Z" class="st1" style="fill: none; stroke: rgb(192, 193, 191); stroke-width: 10; stroke-miterlimit: 10;"/>
					</g>
					<g>
						<path d="M 746.7000122070312 -185.3000030517578 L 653.0999755859375 -239.3000030517578 L 653.0999755859375 -347.3999938964844 L 746.7000122070312 -401.3999938964844 L 840.2999877929688 -347.3999938964844 L 840.2999877929688 -239.3000030517578 Z" class="st1" style="fill: none; stroke: rgb(192, 193, 191); stroke-width: 10; stroke-miterlimit: 10;"/>
						<path d="M 1027.5 -347.3999938964844 L 933.9000244140625 -401.3999938964844 L 933.9000244140625 -509.5 L 1027.5 -563.5 L 1121.0999755859375 -509.3999938964844 L 1121.0999755859375 -401.3999938964844 Z" class="st1" style="fill: none; stroke: rgb(192, 193, 191); stroke-width: 10; stroke-miterlimit: 10;"/>
						<path d="M 933.9000244140625 -185.3000030517578 L 840.2999877929688 -239.3000030517578 L 840.2999877929688 -347.3999938964844 L 933.9000244140625 -401.3999938964844 L 1027.5 -347.29998779296875 L 1027.5 -239.3000030517578 Z" class="st1" style="fill: none; stroke: rgb(192, 193, 191); stroke-width: 10; stroke-miterlimit: 10;"/>
						<path d="M 1214.699951171875 -347.29998779296875 L 1121.0999755859375 -401.3999938964844 L 1121.0999755859375 -509.3999938964844 L 1214.699951171875 -563.5 L 1308.300048828125 -509.3999938964844 L 1308.300048828125 -401.29998779296875 Z" class="st1" style="fill: none; stroke: rgb(192, 193, 191); stroke-width: 10; stroke-miterlimit: 10;"/>
					</g>
				</g>
				<g>
					<g>
						<path d="M -189.3000030517578 787.2000122070312 L -282.8999938964844 733.0999755859375 L -282.8999938964844 625 L -189.3000030517578 571 L -95.69999694824219 625.0999755859375 L -95.69999694824219 733.0999755859375 Z" class="st1" style="fill: none; stroke: rgb(192, 193, 191); stroke-width: 10; stroke-miterlimit: 10;"/>
						<path d="M 91.4000015258789 625.0999755859375 L -2.0999999046325684 571.0999755859375 L -2.0999999046325684 463 L 91.5 409 L 185.10000610351562 463 L 185 571.0999755859375 Z" class="st1" style="fill: none; stroke: rgb(192, 193, 191); stroke-width: 10; stroke-miterlimit: 10;"/>
						<path d="M -2.200000047683716 787.2000122070312 L -95.80000305175781 733.2000122070312 L -95.69999694824219 625.0999755859375 L -2.0999999046325684 571.0999755859375 L 91.4000015258789 625.0999755859375 L 91.4000015258789 733.2000122070312 Z" class="st1" style="fill: none; stroke: rgb(192, 193, 191); stroke-width: 10; stroke-miterlimit: 10;"/>
						<path d="M 278.6000061035156 625.0999755859375 L 185 571.0999755859375 L 185.10000610351562 463 L 278.70001220703125 409 L 372.20001220703125 463.1000061035156 L 372.20001220703125 571.0999755859375 Z" class="st1" style="fill: none; stroke: rgb(192, 193, 191); stroke-width: 10; stroke-miterlimit: 10;"/>
					</g>
					<g>
						<path d="M 372.20001220703125 463.1000061035156 L 278.70001220703125 409 L 278.70001220703125 300.8999938964844 L 372.29998779296875 246.89999389648438 L 465.8999938964844 301 L 465.79998779296875 409 Z" class="st1" style="fill: none; stroke: rgb(192, 193, 191); stroke-width: 10; stroke-miterlimit: 10;"/>
						<path d="M 653 301 L 559.4000244140625 246.89999389648438 L 559.5 138.89999389648438 L 653.0999755859375 84.9000015258789 L 746.5999755859375 138.89999389648438 L 746.5999755859375 247 Z" class="st1" style="fill: none; stroke: rgb(192, 193, 191); stroke-width: 10; stroke-miterlimit: 10;"/>
						<path d="M 559.4000244140625 463.1000061035156 L 465.79998779296875 409 L 465.79998779296875 301 L 559.4000244140625 247 L 653 301 L 653 409.1000061035156 Z" class="st1" style="fill: none; stroke: rgb(192, 193, 191); stroke-width: 10; stroke-miterlimit: 10;"/>
						<path d="M 840.2000122070312 301 L 746.5999755859375 247 L 746.5999755859375 138.89999389648438 L 840.2000122070312 84.9000015258789 L 933.7999877929688 138.89999389648438 L 933.7999877929688 247 Z" class="st1" style="fill: none; stroke: rgb(192, 193, 191); stroke-width: 10; stroke-miterlimit: 10;"/>
					</g>
					<g>
						<path d="M 933.7999877929688 138.89999389648438 L 840.2000122070312 84.9000015258789 L 840.2999877929688 -23.200000762939453 L 933.9000244140625 -77.19999694824219 L 1027.4000244140625 -23.100000381469727 L 1027.4000244140625 84.9000015258789 Z" class="st1" style="fill: none; stroke: rgb(192, 193, 191); stroke-width: 10; stroke-miterlimit: 10;"/>
						<path d="M 1214.5999755859375 -23.100000381469727 L 1121 -77.19999694824219 L 1121.0999755859375 -185.1999969482422 L 1214.5999755859375 -239.3000030517578 L 1308.199951171875 -185.1999969482422 L 1308.199951171875 -77.0999984741211 Z" class="st1" style="fill: none; stroke: rgb(192, 193, 191); stroke-width: 10; stroke-miterlimit: 10;"/>
						<path d="M 1121 139 L 1027.4000244140625 84.9000015258789 L 1027.4000244140625 -23.100000381469727 L 1121 -77.19999694824219 L 1214.5999755859375 -23.100000381469727 L 1214.5999755859375 85 Z" class="st1" style="fill: none; stroke: rgb(192, 193, 191); stroke-width: 10; stroke-miterlimit: 10;"/>
						<path d="M 1401.800048828125 -23.100000381469727 L 1308.199951171875 -77.0999984741211 L 1308.199951171875 -185.1999969482422 L 1401.800048828125 -239.1999969482422 L 1495.4000244140625 -185.1999969482422 L 1495.4000244140625 -77.0999984741211 Z" class="st1" style="fill: none; stroke: rgb(192, 193, 191); stroke-width: 10; stroke-miterlimit: 10;"/>
					</g>
				</g>
				<g>
					<g>
						<path d="M -95.80000305175781 949.2999877929688 L -189.39999389648438 895.2000122070312 L -189.3000030517578 787.2000122070312 L -95.69999694824219 733.0999755859375 L -2.200000047683716 787.2000122070312 L -2.200000047683716 895.2999877929688 Z" class="st1" style="fill: none; stroke: rgb(192, 193, 191); stroke-width: 10; stroke-miterlimit: 10;"/>
						<path d="M 185 787.2000122070312 L 91.4000015258789 733.2000122070312 L 91.4000015258789 625.0999755859375 L 185 571.0999755859375 L 278.6000061035156 625.0999755859375 L 278.6000061035156 733.2000122070312 Z" class="st1" style="fill: none; stroke: rgb(192, 193, 191); stroke-width: 10; stroke-miterlimit: 10;"/>
						<path d="M 91.4000015258789 949.2999877929688 L -2.200000047683716 895.2999877929688 L -2.200000047683716 787.2000122070312 L 91.4000015258789 733.2000122070312 L 185 787.2000122070312 L 185 895.2999877929688 Z" class="st1" style="fill: none; stroke: rgb(192, 193, 191); stroke-width: 10; stroke-miterlimit: 10;"/>
						<path d="M 372.20001220703125 787.2999877929688 L 278.6000061035156 733.2000122070312 L 278.6000061035156 625.0999755859375 L 372.20001220703125 571.0999755859375 L 465.79998779296875 625.2000122070312 L 465.79998779296875 733.2000122070312 Z" class="st1" style="fill: none; stroke: rgb(192, 193, 191); stroke-width: 10; stroke-miterlimit: 10;"/>
					</g>
					<g>
						<path d="M 465.79998779296875 625.2000122070312 L 372.20001220703125 571.0999755859375 L 372.20001220703125 463.1000061035156 L 465.79998779296875 409 L 559.4000244140625 463.1000061035156 L 559.4000244140625 571.0999755859375 Z" class="st1" style="fill: none; stroke: rgb(192, 193, 191); stroke-width: 10; stroke-miterlimit: 10;"/>
						<path d="M 746.5999755859375 463.1000061035156 L 653 409.1000061035156 L 653 301 L 746.5999755859375 247 L 840.2000122070312 301 L 840.2000122070312 409.1000061035156 Z" class="st1" style="fill: none; stroke: rgb(192, 193, 191); stroke-width: 10; stroke-miterlimit: 10;"/>
						<path d="M 653 625.2000122070312 L 559.4000244140625 571.2000122070312 L 559.4000244140625 463.1000061035156 L 653 409.1000061035156 L 746.5999755859375 463.1000061035156 L 746.5999755859375 571.2000122070312 Z" class="st1" style="fill: none; stroke: rgb(192, 193, 191); stroke-width: 10; stroke-miterlimit: 10;"/>
						<path d="M 933.7999877929688 463.1000061035156 L 840.2000122070312 409.1000061035156 L 840.2000122070312 301 L 933.7999877929688 247 L 1027.4000244140625 301.1000061035156 L 1027.4000244140625 409.1000061035156 Z" class="st1" style="fill: none; stroke: rgb(192, 193, 191); stroke-width: 10; stroke-miterlimit: 10;"/>
					</g>
					<g>
						<path d="M 1027.4000244140625 301.1000061035156 L 933.7999877929688 247 L 933.7999877929688 138.89999389648438 L 1027.4000244140625 84.9000015258789 L 1121 139 L 1121 247 Z" class="st1" style="fill: none; stroke: rgb(192, 193, 191); stroke-width: 10; stroke-miterlimit: 10;"/>
						<path d="M 1308.199951171875 139 L 1214.5999755859375 84.9000015258789 L 1214.5999755859375 -23.100000381469727 L 1308.199951171875 -77.0999984741211 L 1401.800048828125 -23.100000381469727 L 1401.800048828125 85 Z" class="st1" style="fill: none; stroke: rgb(192, 193, 191); stroke-width: 10; stroke-miterlimit: 10;"/>
						<path d="M 1214.5999755859375 301.1000061035156 L 1121 247 L 1121 139 L 1214.5999755859375 85 L 1308.199951171875 139 L 1308.199951171875 247.10000610351562 Z" class="st1" style="fill: none; stroke: rgb(192, 193, 191); stroke-width: 10; stroke-miterlimit: 10;"/>
						<path d="M 1495.300048828125 139 L 1401.800048828125 85 L 1401.800048828125 -23.100000381469727 L 1495.4000244140625 -77.0999984741211 L 1589 -23.100000381469727 L 1588.9000244140625 85 Z" class="st1" style="fill: none; stroke: rgb(192, 193, 191); stroke-width: 10; stroke-miterlimit: 10;"/>
					</g>
				</g>
				<g>
					<g>
						<path d="M -2.200000047683716 1111.4000244140625 L -95.80000305175781 1057.300048828125 L -95.80000305175781 949.2999877929688 L -2.200000047683716 895.2999877929688 L 91.4000015258789 949.2999877929688 L 91.4000015258789 1057.4000244140625 Z" class="st1" style="fill: none; stroke: rgb(192, 193, 191); stroke-width: 10; stroke-miterlimit: 10;"/>
						<path d="M 278.6000061035156 949.2999877929688 L 185 895.2999877929688 L 185 787.2000122070312 L 278.6000061035156 733.2000122070312 L 372.20001220703125 787.2999877929688 L 372.20001220703125 895.2999877929688 Z" class="st1" style="fill: none; stroke: rgb(192, 193, 191); stroke-width: 10; stroke-miterlimit: 10;"/>
						<path d="M 185 1111.4000244140625 L 91.4000015258789 1057.4000244140625 L 91.4000015258789 949.2999877929688 L 185 895.2999877929688 L 278.6000061035156 949.2999877929688 L 278.5 1057.4000244140625 Z" class="st1" style="fill: none; stroke: rgb(192, 193, 191); stroke-width: 10; stroke-miterlimit: 10;"/>
						<path d="M 465.70001220703125 949.4000244140625 L 372.20001220703125 895.2999877929688 L 372.20001220703125 787.2999877929688 L 465.79998779296875 733.2000122070312 L 559.4000244140625 787.2999877929688 L 559.2999877929688 895.4000244140625 Z" class="st1" style="fill: none; stroke: rgb(192, 193, 191); stroke-width: 10; stroke-miterlimit: 10;"/>
					</g>
					<g>
						<path d="M 559.4000244140625 787.2999877929688 L 465.79998779296875 733.2000122070312 L 465.79998779296875 625.2000122070312 L 559.4000244140625 571.0999755859375 L 653 625.2000122070312 L 653 733.2999877929688 Z" class="st1" style="fill: none; stroke: rgb(192, 193, 191); stroke-width: 10; stroke-miterlimit: 10;"/>
						<path d="M 840.2000122070312 625.2000122070312 L 746.5999755859375 571.2000122070312 L 746.5999755859375 463.1000061035156 L 840.2000122070312 409.1000061035156 L 933.7999877929688 463.1000061035156 L 933.7999877929688 571.2000122070312 Z" class="st1" style="fill: none; stroke: rgb(192, 193, 191); stroke-width: 10; stroke-miterlimit: 10;"/>
						<path d="M 746.5 787.2999877929688 L 653 733.2999877929688 L 653 625.2000122070312 L 746.5999755859375 571.2000122070312 L 840.0999755859375 625.2000122070312 L 840.0999755859375 733.2999877929688 Z" class="st1" style="fill: none; stroke: rgb(192, 193, 191); stroke-width: 10; stroke-miterlimit: 10;"/>
						<path d="M 1027.300048828125 625.2999877929688 L 933.7000122070312 571.2000122070312 L 933.7999877929688 463.1000061035156 L 1027.4000244140625 409.1000061035156 L 1120.9000244140625 463.20001220703125 L 1120.9000244140625 571.2000122070312 Z" class="st1" style="fill: none; stroke: rgb(192, 193, 191); stroke-width: 10; stroke-miterlimit: 10;"/>
					</g>
					<g>
						<path d="M 1121 463.20001220703125 L 1027.4000244140625 409.1000061035156 L 1027.4000244140625 301.1000061035156 L 1121 247 L 1214.5999755859375 301.1000061035156 L 1214.5 409.20001220703125 Z" class="st1" style="fill: none; stroke: rgb(192, 193, 191); stroke-width: 10; stroke-miterlimit: 10;"/>
						<path d="M 1401.699951171875 301.1000061035156 L 1308.199951171875 247.10000610351562 L 1308.199951171875 139 L 1401.800048828125 85 L 1495.4000244140625 139 L 1495.300048828125 247.10000610351562 Z" class="st1" style="fill: none; stroke: rgb(192, 193, 191); stroke-width: 10; stroke-miterlimit: 10;"/>
						<path d="M 1308.0999755859375 463.20001220703125 L 1214.5 409.20001220703125 L 1214.5999755859375 301.1000061035156 L 1308.199951171875 247.10000610351562 L 1401.699951171875 301.1000061035156 L 1401.699951171875 409.20001220703125 Z" class="st1" style="fill: none; stroke: rgb(192, 193, 191); stroke-width: 10; stroke-miterlimit: 10;"/>
						<path d="M 1588.9000244140625 301.1000061035156 L 1495.300048828125 247.10000610351562 L 1495.300048828125 139 L 1588.9000244140625 85 L 1682.5 139.10000610351562 L 1682.5 247.10000610351562 Z" class="st1" style="fill: none; stroke: rgb(192, 193, 191); stroke-width: 10; stroke-miterlimit: 10;"/>
					</g>
				</g>
				<g>
					<g>
						<path d="M 91.30000305175781 1273.5 L -2.200000047683716 1219.5 L -2.200000047683716 1111.4000244140625 L 91.4000015258789 1057.4000244140625 L 185 1111.4000244140625 L 184.89999389648438 1219.5 Z" class="st1" style="fill: none; stroke: rgb(192, 193, 191); stroke-width: 10; stroke-miterlimit: 10;"/>
						<path d="M 372.1000061035156 1111.5 L 278.6000061035156 1057.4000244140625 L 278.6000061035156 949.2999877929688 L 372.20001220703125 895.2999877929688 L 465.79998779296875 949.4000244140625 L 465.70001220703125 1057.4000244140625 Z" class="st1" style="fill: none; stroke: rgb(192, 193, 191); stroke-width: 10; stroke-miterlimit: 10;"/>
						<path d="M 278.5 1273.5 L 184.89999389648438 1219.5 L 185 1111.4000244140625 L 278.5 1057.4000244140625 L 372.1000061035156 1111.5 L 372.1000061035156 1219.5 Z" class="st1" style="fill: none; stroke: rgb(192, 193, 191); stroke-width: 10; stroke-miterlimit: 10;"/>
						<path d="M 559.2999877929688 1111.5 L 465.70001220703125 1057.4000244140625 L 465.70001220703125 949.4000244140625 L 559.2999877929688 895.4000244140625 L 652.9000244140625 949.4000244140625 L 652.9000244140625 1057.5 Z" class="st1" style="fill: none; stroke: rgb(192, 193, 191); stroke-width: 10; stroke-miterlimit: 10;"/>
					</g>
					<g>
						<path d="M 652.9000244140625 949.4000244140625 L 559.2999877929688 895.4000244140625 L 559.4000244140625 787.2999877929688 L 653 733.2999877929688 L 746.5 787.2999877929688 L 746.5 895.4000244140625 Z" class="st1" style="fill: none; stroke: rgb(192, 193, 191); stroke-width: 10; stroke-miterlimit: 10;"/>
						<path d="M 933.7000122070312 787.2999877929688 L 840.0999755859375 733.2999877929688 L 840.2000122070312 625.2000122070312 L 933.7999877929688 571.2000122070312 L 1027.300048828125 625.2999877929688 L 1027.300048828125 733.2999877929688 Z" class="st1" style="fill: none; stroke: rgb(192, 193, 191); stroke-width: 10; stroke-miterlimit: 10;"/>
						<path d="M 840.0999755859375 949.4000244140625 L 746.5 895.4000244140625 L 746.5 787.2999877929688 L 840.0999755859375 733.2999877929688 L 933.7000122070312 787.2999877929688 L 933.7000122070312 895.4000244140625 Z" class="st1" style="fill: none; stroke: rgb(192, 193, 191); stroke-width: 10; stroke-miterlimit: 10;"/>
						<path d="M 1120.9000244140625 787.4000244140625 L 1027.300048828125 733.2999877929688 L 1027.300048828125 625.2999877929688 L 1120.9000244140625 571.2000122070312 L 1214.5 625.2999877929688 L 1214.5 733.4000244140625 Z" class="st1" style="fill: none; stroke: rgb(192, 193, 191); stroke-width: 10; stroke-miterlimit: 10;"/>
					</g>
					<g>
						<path d="M 1214.5 625.2999877929688 L 1120.9000244140625 571.2000122070312 L 1121 463.20001220703125 L 1214.5 409.20001220703125 L 1308.0999755859375 463.20001220703125 L 1308.0999755859375 571.2999877929688 Z" class="st1" style="fill: none; stroke: rgb(192, 193, 191); stroke-width: 10; stroke-miterlimit: 10;"/>
						<path d="M 1495.300048828125 463.20001220703125 L 1401.699951171875 409.20001220703125 L 1401.699951171875 301.1000061035156 L 1495.300048828125 247.10000610351562 L 1588.9000244140625 301.1000061035156 L 1588.9000244140625 409.20001220703125 Z" class="st1" style="fill: none; stroke: rgb(192, 193, 191); stroke-width: 10; stroke-miterlimit: 10;"/>
						<path d="M 1401.699951171875 625.2999877929688 L 1308.0999755859375 571.2999877929688 L 1308.0999755859375 463.20001220703125 L 1401.699951171875 409.20001220703125 L 1495.300048828125 463.20001220703125 L 1495.300048828125 571.2999877929688 Z" class="st1" style="fill: none; stroke: rgb(192, 193, 191); stroke-width: 10; stroke-miterlimit: 10;"/>
						<path d="M 1682.5 463.29998779296875 L 1588.9000244140625 409.20001220703125 L 1588.9000244140625 301.1000061035156 L 1682.5 247.10000610351562 L 1776.0999755859375 301.20001220703125 L 1776.0999755859375 409.20001220703125 Z" class="st1" style="fill: none; stroke: rgb(192, 193, 191); stroke-width: 10; stroke-miterlimit: 10;"/>
					</g>
				</g>
				<g>
					<g>
						<path d="M 184.89999389648438 1435.5999755859375 L 91.30000305175781 1381.5999755859375 L 91.30000305175781 1273.5 L 184.89999389648438 1219.5 L 278.5 1273.5 L 278.5 1381.5999755859375 Z" class="st1" style="fill: none; stroke: rgb(192, 193, 191); stroke-width: 10; stroke-miterlimit: 10;"/>
						<path d="M 465.70001220703125 1273.5999755859375 L 372.1000061035156 1219.5 L 372.1000061035156 1111.5 L 465.70001220703125 1057.4000244140625 L 559.2999877929688 1111.5 L 559.2999877929688 1219.5999755859375 Z" class="st1" style="fill: none; stroke: rgb(192, 193, 191); stroke-width: 10; stroke-miterlimit: 10;"/>
						<path d="M 372.1000061035156 1435.699951171875 L 278.5 1381.5999755859375 L 278.5 1273.5 L 372.1000061035156 1219.5 L 465.70001220703125 1273.5999755859375 L 465.70001220703125 1381.5999755859375 Z" class="st1" style="fill: none; stroke: rgb(192, 193, 191); stroke-width: 10; stroke-miterlimit: 10;"/>
						<path d="M 652.9000244140625 1273.5999755859375 L 559.2999877929688 1219.5999755859375 L 559.2999877929688 1111.5 L 652.9000244140625 1057.5 L 746.5 1111.5 L 746.5 1219.5999755859375 Z" class="st1" style="fill: none; stroke: rgb(192, 193, 191); stroke-width: 10; stroke-miterlimit: 10;"/>
					</g>
					<g>
						<path d="M 746.5 1111.5 L 652.9000244140625 1057.5 L 652.9000244140625 949.4000244140625 L 746.5 895.4000244140625 L 840.0999755859375 949.4000244140625 L 840.0999755859375 1057.5 Z" class="st1" style="fill: none; stroke: rgb(192, 193, 191); stroke-width: 10; stroke-miterlimit: 10;"/>
						<path d="M 1027.300048828125 949.5 L 933.7000122070312 895.4000244140625 L 933.7000122070312 787.2999877929688 L 1027.300048828125 733.2999877929688 L 1120.9000244140625 787.4000244140625 L 1120.9000244140625 895.4000244140625 Z" class="st1" style="fill: none; stroke: rgb(192, 193, 191); stroke-width: 10; stroke-miterlimit: 10;"/>
						<path d="M 933.7000122070312 1111.5 L 840.0999755859375 1057.5 L 840.0999755859375 949.4000244140625 L 933.7000122070312 895.4000244140625 L 1027.300048828125 949.5 L 1027.300048828125 1057.5 Z" class="st1" style="fill: none; stroke: rgb(192, 193, 191); stroke-width: 10; stroke-miterlimit: 10;"/>
						<path d="M 1214.5 949.5 L 1120.9000244140625 895.4000244140625 L 1120.9000244140625 787.4000244140625 L 1214.5 733.4000244140625 L 1308.0999755859375 787.4000244140625 L 1308 895.5 Z" class="st1" style="fill: none; stroke: rgb(192, 193, 191); stroke-width: 10; stroke-miterlimit: 10;"/>
					</g>
					<g>
						<path d="M 1308.0999755859375 787.4000244140625 L 1214.5 733.4000244140625 L 1214.5 625.2999877929688 L 1308.0999755859375 571.2999877929688 L 1401.699951171875 625.2999877929688 L 1401.699951171875 733.4000244140625 Z" class="st1" style="fill: none; stroke: rgb(192, 193, 191); stroke-width: 10; stroke-miterlimit: 10;"/>
						<path d="M 1588.9000244140625 625.2999877929688 L 1495.300048828125 571.2999877929688 L 1495.300048828125 463.20001220703125 L 1588.9000244140625 409.20001220703125 L 1682.5 463.29998779296875 L 1682.5 571.2999877929688 Z" class="st1" style="fill: none; stroke: rgb(192, 193, 191); stroke-width: 10; stroke-miterlimit: 10;"/>
						<path d="M 1495.199951171875 787.4000244140625 L 1401.699951171875 733.4000244140625 L 1401.699951171875 625.2999877929688 L 1495.300048828125 571.2999877929688 L 1588.9000244140625 625.2999877929688 L 1588.800048828125 733.4000244140625 Z" class="st1" style="fill: none; stroke: rgb(192, 193, 191); stroke-width: 10; stroke-miterlimit: 10;"/>
						<path d="M 1776 625.4000244140625 L 1682.5 571.2999877929688 L 1682.5 463.29998779296875 L 1776.0999755859375 409.20001220703125 L 1869.699951171875 463.29998779296875 L 1869.5999755859375 571.4000244140625 Z" class="st1" style="fill: none; stroke: rgb(192, 193, 191); stroke-width: 10; stroke-miterlimit: 10;"/>
					</g>
				</g>
				<g>
					<g>
						<path d="M 278.5 1597.699951171875 L 184.89999389648438 1543.699951171875 L 184.89999389648438 1435.5999755859375 L 278.5 1381.5999755859375 L 372.1000061035156 1435.699951171875 L 372.1000061035156 1543.699951171875 Z" class="st1" style="fill: none; stroke: rgb(192, 193, 191); stroke-width: 10; stroke-miterlimit: 10;"/>
						<path d="M 559.2999877929688 1435.699951171875 L 465.70001220703125 1381.5999755859375 L 465.70001220703125 1273.5999755859375 L 559.2999877929688 1219.5999755859375 L 652.9000244140625 1273.5999755859375 L 652.9000244140625 1381.699951171875 Z" class="st1" style="fill: none; stroke: rgb(192, 193, 191); stroke-width: 10; stroke-miterlimit: 10;"/>
						<path d="M 465.6000061035156 1597.800048828125 L 372.1000061035156 1543.699951171875 L 372.1000061035156 1435.699951171875 L 465.70001220703125 1381.5999755859375 L 559.2999877929688 1435.699951171875 L 559.2000122070312 1543.800048828125 Z" class="st1" style="fill: none; stroke: rgb(192, 193, 191); stroke-width: 10; stroke-miterlimit: 10;"/>
						<path d="M 746.4000244140625 1435.699951171875 L 652.9000244140625 1381.699951171875 L 652.9000244140625 1273.5999755859375 L 746.5 1219.5999755859375 L 840 1273.5999755859375 L 840 1381.699951171875 Z" class="st1" style="fill: none; stroke: rgb(192, 193, 191); stroke-width: 10; stroke-miterlimit: 10;"/>
					</g>
					<g>
						<path d="M 840.0999755859375 1273.5999755859375 L 746.5 1219.5999755859375 L 746.5 1111.5 L 840.0999755859375 1057.5 L 933.7000122070312 1111.5 L 933.7000122070312 1219.5999755859375 Z" class="st1" style="fill: none; stroke: rgb(192, 193, 191); stroke-width: 10; stroke-miterlimit: 10;"/>
						<path d="M 1120.800048828125 1111.5999755859375 L 1027.300048828125 1057.5 L 1027.300048828125 949.5 L 1120.9000244140625 895.4000244140625 L 1214.5 949.5 L 1214.4000244140625 1057.5999755859375 Z" class="st1" style="fill: none; stroke: rgb(192, 193, 191); stroke-width: 10; stroke-miterlimit: 10;"/>
						<path d="M 1027.199951171875 1273.699951171875 L 933.5999755859375 1219.5999755859375 L 933.7000122070312 1111.5 L 1027.300048828125 1057.5 L 1120.800048828125 1111.5999755859375 L 1120.800048828125 1219.5999755859375 Z" class="st1" style="fill: none; stroke: rgb(192, 193, 191); stroke-width: 10; stroke-miterlimit: 10;"/>
						<path d="M 1308 1111.5999755859375 L 1214.4000244140625 1057.5999755859375 L 1214.5 949.5 L 1308 895.5 L 1401.5999755859375 949.5 L 1401.5999755859375 1057.5999755859375 Z" class="st1" style="fill: none; stroke: rgb(192, 193, 191); stroke-width: 10; stroke-miterlimit: 10;"/>
					</g>
					<g>
						<path d="M 1401.5999755859375 949.5 L 1308.0999755859375 895.5 L 1308.0999755859375 787.4000244140625 L 1401.699951171875 733.4000244140625 L 1495.300048828125 787.4000244140625 L 1495.199951171875 895.5 Z" class="st1" style="fill: none; stroke: rgb(192, 193, 191); stroke-width: 10; stroke-miterlimit: 10;"/>
						<path d="M 1682.4000244140625 787.5 L 1588.9000244140625 733.4000244140625 L 1588.9000244140625 625.2999877929688 L 1682.5 571.2999877929688 L 1776 625.4000244140625 L 1776 733.4000244140625 Z" class="st1" style="fill: none; stroke: rgb(192, 193, 191); stroke-width: 10; stroke-miterlimit: 10;"/>
						<path d="M 1588.800048828125 949.5 L 1495.199951171875 895.5 L 1495.199951171875 787.4000244140625 L 1588.800048828125 733.4000244140625 L 1682.4000244140625 787.5 L 1682.4000244140625 895.5 Z" class="st1" style="fill: none; stroke: rgb(192, 193, 191); stroke-width: 10; stroke-miterlimit: 10;"/>
						<path d="M 1869.5999755859375 787.5 L 1776 733.4000244140625 L 1776 625.4000244140625 L 1869.5999755859375 571.4000244140625 L 1963.199951171875 625.4000244140625 L 1963.199951171875 733.5 Z" class="st1" style="fill: none; stroke: rgb(192, 193, 191); stroke-width: 10; stroke-miterlimit: 10;"/>
					</g>
				</g>
			</g>
			<g>
				<g>
					<g>
						<path d="M -376.1000061035156 570.7999877929688 L -469.70001220703125 516.7000122070312 L -469.6000061035156 408.6000061035156 L -376 354.6000061035156 L -282.5 408.70001220703125 L -282.5 516.7000122070312 Z" class="st2" style="fill: none; stroke: rgb(192, 193, 191); stroke-width: 10; stroke-miterlimit: 10;"/>
						<path d="M -95.30000305175781 408.70001220703125 L -188.89999389648438 354.70001220703125 L -188.8000030517578 246.60000610351562 L -95.19999694824219 192.60000610351562 L -1.7000000476837158 246.60000610351562 L -1.7000000476837158 354.70001220703125 Z" class="st2" style="fill: none; stroke: rgb(192, 193, 191); stroke-width: 10; stroke-miterlimit: 10;"/>
						<path d="M -188.89999389648438 570.7999877929688 L -282.5 516.7000122070312 L -282.5 408.70001220703125 L -188.89999389648438 354.70001220703125 L -95.30000305175781 408.70001220703125 L -95.30000305175781 516.7999877929688 Z" class="st2" style="fill: none; stroke: rgb(192, 193, 191); stroke-width: 10; stroke-miterlimit: 10;"/>
						<path d="M 91.9000015258789 408.70001220703125 L -1.7000000476837158 354.70001220703125 L -1.7000000476837158 246.60000610351562 L 91.9000015258789 192.60000610351562 L 185.5 246.6999969482422 L 185.5 354.70001220703125 Z" class="st2" style="fill: none; stroke: rgb(192, 193, 191); stroke-width: 10; stroke-miterlimit: 10;"/>
					</g>
					<g>
						<path d="M 185.5 246.60000610351562 L 91.9000015258789 192.60000610351562 L 91.9000015258789 84.5 L 185.5 30.5 L 279.1000061035156 84.5999984741211 L 279.1000061035156 192.60000610351562 Z" class="st2" style="fill: none; stroke: rgb(192, 193, 191); stroke-width: 10; stroke-miterlimit: 10;"/>
						<path d="M 466.29998779296875 84.5999984741211 L 372.70001220703125 30.5 L 372.70001220703125 -77.5 L 466.29998779296875 -131.5 L 559.9000244140625 -77.5 L 559.9000244140625 30.600000381469727 Z" class="st2" style="fill: none; stroke: rgb(192, 193, 191); stroke-width: 10; stroke-miterlimit: 10;"/>
						<path d="M 372.70001220703125 246.6999969482422 L 279.1000061035156 192.60000610351562 L 279.1000061035156 84.5999984741211 L 372.70001220703125 30.5 L 466.29998779296875 84.5999984741211 L 466.29998779296875 192.6999969482422 Z" class="st2" style="fill: none; stroke: rgb(192, 193, 191); stroke-width: 10; stroke-miterlimit: 10;"/>
						<path d="M 653.5 84.5999984741211 L 559.9000244140625 30.600000381469727 L 559.9000244140625 -77.5 L 653.5 -131.5 L 747.0999755859375 -77.5 L 747.0999755859375 30.600000381469727 Z" class="st2" style="fill: none; stroke: rgb(192, 193, 191); stroke-width: 10; stroke-miterlimit: 10;"/>
					</g>
					<g>
						<path d="M 747.0999755859375 -77.5 L 653.5 -131.5 L 653.5 -239.60000610351562 L 747.0999755859375 -293.6000061035156 L 840.7000122070312 -239.60000610351562 L 840.7000122070312 -131.5 Z" class="st2" style="fill: none; stroke: rgb(192, 193, 191); stroke-width: 10; stroke-miterlimit: 10;"/>
						<path d="M 1027.9000244140625 -239.5 L 934.2999877929688 -293.6000061035156 L 934.2999877929688 -401.6000061035156 L 1027.9000244140625 -455.70001220703125 L 1121.5 -401.6000061035156 L 1121.5 -293.5 Z" class="st2" style="fill: none; stroke: rgb(192, 193, 191); stroke-width: 10; stroke-miterlimit: 10;"/>
						<path d="M 934.2999877929688 -77.4000015258789 L 840.7000122070312 -131.5 L 840.7000122070312 -239.5 L 934.2999877929688 -293.6000061035156 L 1027.9000244140625 -239.5 L 1027.9000244140625 -131.5 Z" class="st2" style="fill: none; stroke: rgb(192, 193, 191); stroke-width: 10; stroke-miterlimit: 10;"/>
						<path d="M 1215.0999755859375 -239.5 L 1121.5 -293.5 L 1121.5 -401.6000061035156 L 1215.0999755859375 -455.6000061035156 L 1308.699951171875 -401.6000061035156 L 1308.699951171875 -293.5 Z" class="st2" style="fill: none; stroke: rgb(192, 193, 191); stroke-width: 10; stroke-miterlimit: 10;"/>
					</g>
				</g>
				<g>
					<g>
						<path d="M -469.6000061035156 408.6000061035156 L -563.2000122070312 354.6000061035156 L -563.2000122070312 246.5 L -469.6000061035156 192.5 L -376 246.60000610351562 L -376 354.6000061035156 Z" class="st2" style="fill: none; stroke: rgb(192, 193, 191); stroke-width: 10; stroke-miterlimit: 10;"/>
						<path d="M -188.8000030517578 246.60000610351562 L -282.3999938964844 192.5 L -282.3999938964844 84.5 L -188.8000030517578 30.5 L -95.19999694824219 84.5 L -95.19999694824219 192.60000610351562 Z" class="st2" style="fill: none; stroke: rgb(192, 193, 191); stroke-width: 10; stroke-miterlimit: 10;"/>
						<path d="M -282.5 408.70001220703125 L -376 354.6000061035156 L -376 246.60000610351562 L -282.3999938964844 192.5 L -188.89999389648438 246.60000610351562 L -188.89999389648438 354.70001220703125 Z" class="st2" style="fill: none; stroke: rgb(192, 193, 191); stroke-width: 10; stroke-miterlimit: 10;"/>
						<path d="M -1.7000000476837158 246.60000610351562 L -95.30000305175781 192.60000610351562 L -95.19999694824219 84.5 L -1.600000023841858 30.5 L 91.9000015258789 84.5 L 91.9000015258789 192.60000610351562 Z" class="st2" style="fill: none; stroke: rgb(192, 193, 191); stroke-width: 10; stroke-miterlimit: 10;"/>
					</g>
					<g>
						<path d="M 91.9000015258789 84.5 L -1.600000023841858 30.5 L -1.600000023841858 -77.5999984741211 L 92 -131.60000610351562 L 185.60000610351562 -77.5999984741211 L 185.5 30.5 Z" class="st2" style="fill: none; stroke: rgb(192, 193, 191); stroke-width: 10; stroke-miterlimit: 10;"/>
						<path d="M 372.70001220703125 -77.5 L 279.20001220703125 -131.60000610351562 L 279.20001220703125 -239.60000610351562 L 372.79998779296875 -293.70001220703125 L 466.3999938964844 -239.60000610351562 L 466.29998779296875 -131.5 Z" class="st2" style="fill: none; stroke: rgb(192, 193, 191); stroke-width: 10; stroke-miterlimit: 10;"/>
						<path d="M 279.1000061035156 84.5999984741211 L 185.5 30.5 L 185.60000610351562 -77.5999984741211 L 279.20001220703125 -131.60000610351562 L 372.70001220703125 -77.5 L 372.70001220703125 30.5 Z" class="st2" style="fill: none; stroke: rgb(192, 193, 191); stroke-width: 10; stroke-miterlimit: 10;"/>
						<path d="M 559.9000244140625 -77.5 L 466.29998779296875 -131.5 L 466.29998779296875 -239.60000610351562 L 559.9000244140625 -293.6000061035156 L 653.5 -239.60000610351562 L 653.5 -131.5 Z" class="st2" style="fill: none; stroke: rgb(192, 193, 191); stroke-width: 10; stroke-miterlimit: 10;"/>
					</g>
					<g>
						<path d="M 653.5 -239.60000610351562 L 560 -293.6000061035156 L 560 -401.70001220703125 L 653.5999755859375 -455.70001220703125 L 747.0999755859375 -401.70001220703125 L 747.0999755859375 -293.6000061035156 Z" class="st2" style="fill: none; stroke: rgb(192, 193, 191); stroke-width: 10; stroke-miterlimit: 10;"/>
						<path d="M 934.2999877929688 -401.6000061035156 L 840.7000122070312 -455.70001220703125 L 840.7999877929688 -563.7999877929688 L 934.4000244140625 -617.7999877929688 L 1027.9000244140625 -563.7000122070312 L 1027.9000244140625 -455.70001220703125 Z" class="st2" style="fill: none; stroke: rgb(192, 193, 191); stroke-width: 10; stroke-miterlimit: 10;"/>
						<path d="M 840.7000122070312 -239.5 L 747.0999755859375 -293.6000061035156 L 747.0999755859375 -401.70001220703125 L 840.7000122070312 -455.70001220703125 L 934.2999877929688 -401.6000061035156 L 934.2999877929688 -293.6000061035156 Z" class="st2" style="fill: none; stroke: rgb(192, 193, 191); stroke-width: 10; stroke-miterlimit: 10;"/>
						<path d="M 1121.5 -401.6000061035156 L 1027.9000244140625 -455.70001220703125 L 1027.9000244140625 -563.7000122070312 L 1121.5 -617.7000122070312 L 1215.0999755859375 -563.7000122070312 L 1215.0999755859375 -455.6000061035156 Z" class="st2" style="fill: none; stroke: rgb(192, 193, 191); stroke-width: 10; stroke-miterlimit: 10;"/>
					</g>
				</g>
				<g>
					<g>
						<path d="M -282.5 732.9000244140625 L -376.1000061035156 678.7999877929688 L -376.1000061035156 570.7999877929688 L -282.5 516.7000122070312 L -188.89999389648438 570.7999877929688 L -188.89999389648438 678.9000244140625 Z" class="st2" style="fill: none; stroke: rgb(192, 193, 191); stroke-width: 10; stroke-miterlimit: 10;"/>
						<path d="M -1.7000000476837158 570.7999877929688 L -95.30000305175781 516.7999877929688 L -95.30000305175781 408.70001220703125 L -1.7000000476837158 354.70001220703125 L 91.9000015258789 408.70001220703125 L 91.9000015258789 516.7999877929688 Z" class="st2" style="fill: none; stroke: rgb(192, 193, 191); stroke-width: 10; stroke-miterlimit: 10;"/>
						<path d="M -95.30000305175781 732.9000244140625 L -188.89999389648438 678.9000244140625 L -188.89999389648438 570.7999877929688 L -95.30000305175781 516.7999877929688 L -1.7000000476837158 570.7999877929688 L -1.7000000476837158 678.9000244140625 Z" class="st2" style="fill: none; stroke: rgb(192, 193, 191); stroke-width: 10; stroke-miterlimit: 10;"/>
						<path d="M 185.5 570.7999877929688 L 91.9000015258789 516.7999877929688 L 91.9000015258789 408.70001220703125 L 185.5 354.70001220703125 L 279.1000061035156 408.79998779296875 L 279.1000061035156 516.7999877929688 Z" class="st2" style="fill: none; stroke: rgb(192, 193, 191); stroke-width: 10; stroke-miterlimit: 10;"/>
					</g>
					<g>
						<path d="M 279.1000061035156 408.79998779296875 L 185.5 354.70001220703125 L 185.5 246.60000610351562 L 279.1000061035156 192.60000610351562 L 372.70001220703125 246.6999969482422 L 372.70001220703125 354.70001220703125 Z" class="st2" style="fill: none; stroke: rgb(192, 193, 191); stroke-width: 10; stroke-miterlimit: 10;"/>
						<path d="M 559.9000244140625 246.6999969482422 L 466.29998779296875 192.6999969482422 L 466.29998779296875 84.5999984741211 L 559.9000244140625 30.600000381469727 L 653.5 84.5999984741211 L 653.5 192.6999969482422 Z" class="st2" style="fill: none; stroke: rgb(192, 193, 191); stroke-width: 10; stroke-miterlimit: 10;"/>
						<path d="M 466.20001220703125 408.79998779296875 L 372.70001220703125 354.70001220703125 L 372.70001220703125 246.6999969482422 L 466.29998779296875 192.6999969482422 L 559.9000244140625 246.6999969482422 L 559.7999877929688 354.79998779296875 Z" class="st2" style="fill: none; stroke: rgb(192, 193, 191); stroke-width: 10; stroke-miterlimit: 10;"/>
						<path d="M 747 246.6999969482422 L 653.5 192.6999969482422 L 653.5 84.5999984741211 L 747.0999755859375 30.600000381469727 L 840.7000122070312 84.69999694824219 L 840.5999755859375 192.6999969482422 Z" class="st2" style="fill: none; stroke: rgb(192, 193, 191); stroke-width: 10; stroke-miterlimit: 10;"/>
					</g>
					<g>
						<path d="M 840.7000122070312 84.5999984741211 L 747.0999755859375 30.600000381469727 L 747.0999755859375 -77.5 L 840.7000122070312 -131.5 L 934.2999877929688 -77.4000015258789 L 934.2999877929688 30.600000381469727 Z" class="st2" style="fill: none; stroke: rgb(192, 193, 191); stroke-width: 10; stroke-miterlimit: 10;"/>
						<path d="M 1121.5 -77.4000015258789 L 1027.9000244140625 -131.5 L 1027.9000244140625 -239.5 L 1121.5 -293.5 L 1215.0999755859375 -239.5 L 1215 -131.39999389648438 Z" class="st2" style="fill: none; stroke: rgb(192, 193, 191); stroke-width: 10; stroke-miterlimit: 10;"/>
						<path d="M 1027.800048828125 84.69999694824219 L 934.2000122070312 30.600000381469727 L 934.2999877929688 -77.4000015258789 L 1027.9000244140625 -131.5 L 1121.4000244140625 -77.4000015258789 L 1121.4000244140625 30.700000762939453 Z" class="st2" style="fill: none; stroke: rgb(192, 193, 191); stroke-width: 10; stroke-miterlimit: 10;"/>
						<path d="M 1308.5999755859375 -77.4000015258789 L 1215 -131.39999389648438 L 1215.0999755859375 -239.5 L 1308.699951171875 -293.5 L 1402.199951171875 -239.5 L 1402.199951171875 -131.39999389648438 Z" class="st2" style="fill: none; stroke: rgb(192, 193, 191); stroke-width: 10; stroke-miterlimit: 10;"/>
					</g>
				</g>
				<g>
					<g>
						<path d="M -188.89999389648438 895 L -282.5 840.9000244140625 L -282.5 732.9000244140625 L -188.89999389648438 678.9000244140625 L -95.30000305175781 732.9000244140625 L -95.30000305175781 841 Z" class="st2" style="fill: none; stroke: rgb(192, 193, 191); stroke-width: 10; stroke-miterlimit: 10;"/>
						<path d="M 91.80000305175781 732.9000244140625 L -1.7000000476837158 678.9000244140625 L -1.7000000476837158 570.7999877929688 L 91.9000015258789 516.7999877929688 L 185.5 570.7999877929688 L 185.39999389648438 678.9000244140625 Z" class="st2" style="fill: none; stroke: rgb(192, 193, 191); stroke-width: 10; stroke-miterlimit: 10;"/>
						<path d="M -1.7999999523162842 895 L -95.4000015258789 841 L -95.30000305175781 732.9000244140625 L -1.7000000476837158 678.9000244140625 L 91.80000305175781 732.9000244140625 L 91.80000305175781 841 Z" class="st2" style="fill: none; stroke: rgb(192, 193, 191); stroke-width: 10; stroke-miterlimit: 10;"/>
						<path d="M 279 733 L 185.39999389648438 678.9000244140625 L 185.5 570.7999877929688 L 279.1000061035156 516.7999877929688 L 372.6000061035156 570.9000244140625 L 372.6000061035156 678.9000244140625 Z" class="st2" style="fill: none; stroke: rgb(192, 193, 191); stroke-width: 10; stroke-miterlimit: 10;"/>
					</g>
					<g>
						<path d="M 372.6000061035156 570.9000244140625 L 279.1000061035156 516.7999877929688 L 279.1000061035156 408.79998779296875 L 372.70001220703125 354.70001220703125 L 466.29998779296875 408.79998779296875 L 466.20001220703125 516.9000244140625 Z" class="st2" style="fill: none; stroke: rgb(192, 193, 191); stroke-width: 10; stroke-miterlimit: 10;"/>
						<path d="M 653.4000244140625 408.79998779296875 L 559.9000244140625 354.79998779296875 L 559.9000244140625 246.6999969482422 L 653.5 192.6999969482422 L 747 246.6999969482422 L 747 354.79998779296875 Z" class="st2" style="fill: none; stroke: rgb(192, 193, 191); stroke-width: 10; stroke-miterlimit: 10;"/>
						<path d="M 559.7999877929688 570.9000244140625 L 466.20001220703125 516.9000244140625 L 466.20001220703125 408.79998779296875 L 559.7999877929688 354.79998779296875 L 653.4000244140625 408.79998779296875 L 653.4000244140625 516.9000244140625 Z" class="st2" style="fill: none; stroke: rgb(192, 193, 191); stroke-width: 10; stroke-miterlimit: 10;"/>
						<path d="M 840.5999755859375 408.8999938964844 L 747 354.79998779296875 L 747 246.6999969482422 L 840.5999755859375 192.6999969482422 L 934.2000122070312 246.8000030517578 L 934.2000122070312 354.79998779296875 Z" class="st2" style="fill: none; stroke: rgb(192, 193, 191); stroke-width: 10; stroke-miterlimit: 10;"/>
					</g>
					<g>
						<path d="M 934.2000122070312 246.8000030517578 L 840.5999755859375 192.6999969482422 L 840.7000122070312 84.5999984741211 L 934.2999877929688 30.600000381469727 L 1027.800048828125 84.69999694824219 L 1027.800048828125 192.6999969482422 Z" class="st2" style="fill: none; stroke: rgb(192, 193, 191); stroke-width: 10; stroke-miterlimit: 10;"/>
						<path d="M 1215 84.69999694824219 L 1121.4000244140625 30.700000762939453 L 1121.5 -77.4000015258789 L 1215 -131.39999389648438 L 1308.5999755859375 -77.4000015258789 L 1308.5999755859375 30.700000762939453 Z" class="st2" style="fill: none; stroke: rgb(192, 193, 191); stroke-width: 10; stroke-miterlimit: 10;"/>
						<path d="M 1121.4000244140625 246.8000030517578 L 1027.800048828125 192.8000030517578 L 1027.800048828125 84.69999694824219 L 1121.4000244140625 30.700000762939453 L 1215 84.69999694824219 L 1215 192.8000030517578 Z" class="st2" style="fill: none; stroke: rgb(192, 193, 191); stroke-width: 10; stroke-miterlimit: 10;"/>
						<path d="M 1402.199951171875 84.69999694824219 L 1308.5999755859375 30.700000762939453 L 1308.5999755859375 -77.4000015258789 L 1402.199951171875 -131.39999389648438 L 1495.800048828125 -77.30000305175781 L 1495.800048828125 30.700000762939453 Z" class="st2" style="fill: none; stroke: rgb(192, 193, 191); stroke-width: 10; stroke-miterlimit: 10;"/>
					</g>
				</g>
				<g>
					<g>
						<path d="M -95.4000015258789 1057.0999755859375 L -189 1003.0999755859375 L -188.89999389648438 895 L -95.30000305175781 841 L -1.7999999523162842 895 L -1.7999999523162842 1003.0999755859375 Z" class="st2" style="fill: none; stroke: rgb(192, 193, 191); stroke-width: 10; stroke-miterlimit: 10;"/>
						<path d="M 185.39999389648438 895 L 91.80000305175781 841 L 91.80000305175781 732.9000244140625 L 185.39999389648438 678.9000244140625 L 279 733 L 279 841 Z" class="st2" style="fill: none; stroke: rgb(192, 193, 191); stroke-width: 10; stroke-miterlimit: 10;"/>
						<path d="M 91.80000305175781 1057.0999755859375 L -1.7999999523162842 1003.0999755859375 L -1.7999999523162842 895 L 91.80000305175781 841 L 185.39999389648438 895.0999755859375 L 185.39999389648438 1003.0999755859375 Z" class="st2" style="fill: none; stroke: rgb(192, 193, 191); stroke-width: 10; stroke-miterlimit: 10;"/>
						<path d="M 372.6000061035156 895.0999755859375 L 279 841 L 279 733 L 372.6000061035156 678.9000244140625 L 466.20001220703125 733 L 466.20001220703125 841.0999755859375 Z" class="st2" style="fill: none; stroke: rgb(192, 193, 191); stroke-width: 10; stroke-miterlimit: 10;"/>
					</g>
					<g>
						<path d="M 466.20001220703125 733 L 372.6000061035156 678.9000244140625 L 372.6000061035156 570.9000244140625 L 466.20001220703125 516.9000244140625 L 559.7999877929688 570.9000244140625 L 559.7999877929688 679 Z" class="st2" style="fill: none; stroke: rgb(192, 193, 191); stroke-width: 10; stroke-miterlimit: 10;"/>
						<path d="M 747 570.9000244140625 L 653.4000244140625 516.9000244140625 L 653.4000244140625 408.79998779296875 L 747 354.79998779296875 L 840.5999755859375 408.79998779296875 L 840.5999755859375 516.9000244140625 Z" class="st2" style="fill: none; stroke: rgb(192, 193, 191); stroke-width: 10; stroke-miterlimit: 10;"/>
						<path d="M 653.4000244140625 733 L 559.7999877929688 679 L 559.7999877929688 570.9000244140625 L 653.4000244140625 516.9000244140625 L 747 570.9000244140625 L 747 679 Z" class="st2" style="fill: none; stroke: rgb(192, 193, 191); stroke-width: 10; stroke-miterlimit: 10;"/>
						<path d="M 934.2000122070312 571 L 840.5999755859375 516.9000244140625 L 840.5999755859375 408.8999938964844 L 934.2000122070312 354.79998779296875 L 1027.800048828125 408.8999938964844 L 1027.800048828125 516.9000244140625 Z" class="st2" style="fill: none; stroke: rgb(192, 193, 191); stroke-width: 10; stroke-miterlimit: 10;"/>
					</g>
					<g>
						<path d="M 1027.800048828125 408.8999938964844 L 934.2000122070312 354.79998779296875 L 934.2000122070312 246.8000030517578 L 1027.800048828125 192.6999969482422 L 1121.4000244140625 246.8000030517578 L 1121.4000244140625 354.8999938964844 Z" class="st2" style="fill: none; stroke: rgb(192, 193, 191); stroke-width: 10; stroke-miterlimit: 10;"/>
						<path d="M 1308.5999755859375 246.8000030517578 L 1215 192.8000030517578 L 1215 84.69999694824219 L 1308.5999755859375 30.700000762939453 L 1402.199951171875 84.69999694824219 L 1402.199951171875 192.8000030517578 Z" class="st2" style="fill: none; stroke: rgb(192, 193, 191); stroke-width: 10; stroke-miterlimit: 10;"/>
						<path d="M 1215 408.8999938964844 L 1121.4000244140625 354.8999938964844 L 1121.4000244140625 246.8000030517578 L 1215 192.8000030517578 L 1308.5999755859375 246.8000030517578 L 1308.5999755859375 354.8999938964844 Z" class="st2" style="fill: none; stroke: rgb(192, 193, 191); stroke-width: 10; stroke-miterlimit: 10;"/>
						<path d="M 1495.699951171875 246.89999389648438 L 1402.199951171875 192.8000030517578 L 1402.199951171875 84.69999694824219 L 1495.800048828125 30.700000762939453 L 1589.4000244140625 84.80000305175781 L 1589.300048828125 192.8000030517578 Z" class="st2" style="fill: none; stroke: rgb(192, 193, 191); stroke-width: 10; stroke-miterlimit: 10;"/>
					</g>
				</g>
				<g>
					<g>
						<path d="M -1.7999999523162842 1219.199951171875 L -95.4000015258789 1165.199951171875 L -95.4000015258789 1057.0999755859375 L -1.7999999523162842 1003.0999755859375 L 91.80000305175781 1057.0999755859375 L 91.80000305175781 1165.199951171875 Z" class="st2" style="fill: none; stroke: rgb(192, 193, 191); stroke-width: 10; stroke-miterlimit: 10;"/>
						<path d="M 279 1057.199951171875 L 185.39999389648438 1003.0999755859375 L 185.39999389648438 895 L 279 841 L 372.6000061035156 895.0999755859375 L 372.6000061035156 1003.0999755859375 Z" class="st2" style="fill: none; stroke: rgb(192, 193, 191); stroke-width: 10; stroke-miterlimit: 10;"/>
						<path d="M 185.39999389648438 1219.300048828125 L 91.80000305175781 1165.199951171875 L 91.80000305175781 1057.0999755859375 L 185.39999389648438 1003.0999755859375 L 279 1057.199951171875 L 278.8999938964844 1165.199951171875 Z" class="st2" style="fill: none; stroke: rgb(192, 193, 191); stroke-width: 10; stroke-miterlimit: 10;"/>
						<path d="M 466.1000061035156 1057.199951171875 L 372.6000061035156 1003.0999755859375 L 372.6000061035156 895.0999755859375 L 466.20001220703125 841.0999755859375 L 559.7999877929688 895.0999755859375 L 559.7000122070312 1003.2000122070312 Z" class="st2" style="fill: none; stroke: rgb(192, 193, 191); stroke-width: 10; stroke-miterlimit: 10;"/>
					</g>
					<g>
						<path d="M 559.7999877929688 895.0999755859375 L 466.20001220703125 841.0999755859375 L 466.20001220703125 733 L 559.7999877929688 679 L 653.4000244140625 733 L 653.4000244140625 841.0999755859375 Z" class="st2" style="fill: none; stroke: rgb(192, 193, 191); stroke-width: 10; stroke-miterlimit: 10;"/>
						<path d="M 840.5999755859375 733.0999755859375 L 747 679 L 747 570.9000244140625 L 840.5999755859375 516.9000244140625 L 934.2000122070312 571 L 934.2000122070312 679 Z" class="st2" style="fill: none; stroke: rgb(192, 193, 191); stroke-width: 10; stroke-miterlimit: 10;"/>
						<path d="M 746.9000244140625 895.0999755859375 L 653.4000244140625 841.0999755859375 L 653.4000244140625 733 L 747 679 L 840.5 733.0999755859375 L 840.5 841.0999755859375 Z" class="st2" style="fill: none; stroke: rgb(192, 193, 191); stroke-width: 10; stroke-miterlimit: 10;"/>
						<path d="M 1027.699951171875 733.0999755859375 L 934.2000122070312 679 L 934.2000122070312 571 L 1027.800048828125 516.9000244140625 L 1121.300048828125 571 L 1121.300048828125 679.0999755859375 Z" class="st2" style="fill: none; stroke: rgb(192, 193, 191); stroke-width: 10; stroke-miterlimit: 10;"/>
					</g>
					<g>
						<path d="M 1121.4000244140625 571 L 1027.800048828125 516.9000244140625 L 1027.800048828125 408.8999938964844 L 1121.4000244140625 354.8999938964844 L 1215 408.8999938964844 L 1214.9000244140625 517 Z" class="st2" style="fill: none; stroke: rgb(192, 193, 191); stroke-width: 10; stroke-miterlimit: 10;"/>
						<path d="M 1402.0999755859375 408.8999938964844 L 1308.5999755859375 354.8999938964844 L 1308.5999755859375 246.8000030517578 L 1402.199951171875 192.8000030517578 L 1495.800048828125 246.89999389648438 L 1495.699951171875 354.8999938964844 Z" class="st2" style="fill: none; stroke: rgb(192, 193, 191); stroke-width: 10; stroke-miterlimit: 10;"/>
						<path d="M 1308.5 571 L 1214.9000244140625 517 L 1215 408.8999938964844 L 1308.5999755859375 354.8999938964844 L 1402.0999755859375 408.8999938964844 L 1402.0999755859375 517 Z" class="st2" style="fill: none; stroke: rgb(192, 193, 191); stroke-width: 10; stroke-miterlimit: 10;"/>
						<path d="M 1589.300048828125 409 L 1495.699951171875 354.8999938964844 L 1495.699951171875 246.89999389648438 L 1589.300048828125 192.8000030517578 L 1682.9000244140625 246.89999389648438 L 1682.9000244140625 355 Z" class="st2" style="fill: none; stroke: rgb(192, 193, 191); stroke-width: 10; stroke-miterlimit: 10;"/>
					</g>
				</g>
				<g>
					<g>
						<path d="M 91.69999694824219 1381.300048828125 L -1.7999999523162842 1327.300048828125 L -1.7999999523162842 1219.199951171875 L 91.80000305175781 1165.199951171875 L 185.39999389648438 1219.300048828125 L 185.3000030517578 1327.300048828125 Z" class="st2" style="fill: none; stroke: rgb(192, 193, 191); stroke-width: 10; stroke-miterlimit: 10;"/>
						<path d="M 372.5 1219.300048828125 L 279 1165.199951171875 L 279 1057.199951171875 L 372.6000061035156 1003.0999755859375 L 466.20001220703125 1057.199951171875 L 466.1000061035156 1165.300048828125 Z" class="st2" style="fill: none; stroke: rgb(192, 193, 191); stroke-width: 10; stroke-miterlimit: 10;"/>
						<path d="M 278.8999938964844 1381.4000244140625 L 185.3000030517578 1327.300048828125 L 185.39999389648438 1219.300048828125 L 278.8999938964844 1165.199951171875 L 372.5 1219.300048828125 L 372.5 1327.4000244140625 Z" class="st2" style="fill: none; stroke: rgb(192, 193, 191); stroke-width: 10; stroke-miterlimit: 10;"/>
						<path d="M 559.7000122070312 1219.300048828125 L 466.1000061035156 1165.300048828125 L 466.1000061035156 1057.199951171875 L 559.7000122070312 1003.2000122070312 L 653.2999877929688 1057.199951171875 L 653.2999877929688 1165.300048828125 Z" class="st2" style="fill: none; stroke: rgb(192, 193, 191); stroke-width: 10; stroke-miterlimit: 10;"/>
					</g>
					<g>
						<path d="M 653.2999877929688 1057.199951171875 L 559.7000122070312 1003.2000122070312 L 559.7999877929688 895.0999755859375 L 653.4000244140625 841.0999755859375 L 746.9000244140625 895.0999755859375 L 746.9000244140625 1003.2000122070312 Z" class="st2" style="fill: none; stroke: rgb(192, 193, 191); stroke-width: 10; stroke-miterlimit: 10;"/>
						<path d="M 934.0999755859375 895.2000122070312 L 840.5 841.0999755859375 L 840.5999755859375 733.0999755859375 L 934.2000122070312 679 L 1027.699951171875 733.0999755859375 L 1027.699951171875 841.0999755859375 Z" class="st2" style="fill: none; stroke: rgb(192, 193, 191); stroke-width: 10; stroke-miterlimit: 10;"/>
						<path d="M 840.5 1057.300048828125 L 746.9000244140625 1003.2000122070312 L 746.9000244140625 895.0999755859375 L 840.5 841.0999755859375 L 934.0999755859375 895.2000122070312 L 934.0999755859375 1003.2000122070312 Z" class="st2" style="fill: none; stroke: rgb(192, 193, 191); stroke-width: 10; stroke-miterlimit: 10;"/>
						<path d="M 1121.300048828125 895.2000122070312 L 1027.699951171875 841.2000122070312 L 1027.699951171875 733.0999755859375 L 1121.300048828125 679.0999755859375 L 1214.9000244140625 733.0999755859375 L 1214.9000244140625 841.2000122070312 Z" class="st2" style="fill: none; stroke: rgb(192, 193, 191); stroke-width: 10; stroke-miterlimit: 10;"/>
					</g>
					<g>
						<path d="M 1214.9000244140625 733.0999755859375 L 1121.300048828125 679.0999755859375 L 1121.4000244140625 571 L 1214.9000244140625 517 L 1308.5 571 L 1308.5 679.0999755859375 Z" class="st2" style="fill: none; stroke: rgb(192, 193, 191); stroke-width: 10; stroke-miterlimit: 10;"/>
						<path d="M 1495.699951171875 571.0999755859375 L 1402.0999755859375 517 L 1402.0999755859375 408.8999938964844 L 1495.699951171875 354.8999938964844 L 1589.300048828125 409 L 1589.300048828125 517 Z" class="st2" style="fill: none; stroke: rgb(192, 193, 191); stroke-width: 10; stroke-miterlimit: 10;"/>
						<path d="M 1402.0999755859375 733.0999755859375 L 1308.5 679.0999755859375 L 1308.5 571 L 1402.0999755859375 517 L 1495.699951171875 571.0999755859375 L 1495.699951171875 679.0999755859375 Z" class="st2" style="fill: none; stroke: rgb(192, 193, 191); stroke-width: 10; stroke-miterlimit: 10;"/>
						<path d="M 1682.9000244140625 571.0999755859375 L 1589.300048828125 517 L 1589.300048828125 409 L 1682.9000244140625 355 L 1776.5 409 L 1776.5 517.0999755859375 Z" class="st2" style="fill: none; stroke: rgb(192, 193, 191); stroke-width: 10; stroke-miterlimit: 10;"/>
					</g>
				</g>
				<g>
					<g>
						<path d="M 185.3000030517578 1543.5 L 91.69999694824219 1489.4000244140625 L 91.69999694824219 1381.300048828125 L 185.3000030517578 1327.300048828125 L 278.8999938964844 1381.4000244140625 L 278.8999938964844 1489.4000244140625 Z" class="st2" style="fill: none; stroke: rgb(192, 193, 191); stroke-width: 10; stroke-miterlimit: 10;"/>
						<path d="M 466.1000061035156 1381.4000244140625 L 372.5 1327.300048828125 L 372.5 1219.300048828125 L 466.1000061035156 1165.300048828125 L 559.7000122070312 1219.300048828125 L 559.7000122070312 1327.4000244140625 Z" class="st2" style="fill: none; stroke: rgb(192, 193, 191); stroke-width: 10; stroke-miterlimit: 10;"/>
						<path d="M 372.5 1543.5 L 278.8999938964844 1489.4000244140625 L 278.8999938964844 1381.4000244140625 L 372.5 1327.4000244140625 L 466.1000061035156 1381.4000244140625 L 466.1000061035156 1489.5 Z" class="st2" style="fill: none; stroke: rgb(192, 193, 191); stroke-width: 10; stroke-miterlimit: 10;"/>
						<path d="M 653.2999877929688 1381.4000244140625 L 559.7000122070312 1327.4000244140625 L 559.7000122070312 1219.300048828125 L 653.2999877929688 1165.300048828125 L 746.9000244140625 1219.300048828125 L 746.9000244140625 1327.4000244140625 Z" class="st2" style="fill: none; stroke: rgb(192, 193, 191); stroke-width: 10; stroke-miterlimit: 10;"/>
					</g>
					<g>
						<path d="M 746.9000244140625 1219.300048828125 L 653.2999877929688 1165.300048828125 L 653.2999877929688 1057.199951171875 L 746.9000244140625 1003.2000122070312 L 840.5 1057.300048828125 L 840.5 1165.300048828125 Z" class="st2" style="fill: none; stroke: rgb(192, 193, 191); stroke-width: 10; stroke-miterlimit: 10;"/>
						<path d="M 1027.699951171875 1057.300048828125 L 934.0999755859375 1003.2000122070312 L 934.0999755859375 895.2000122070312 L 1027.699951171875 841.0999755859375 L 1121.300048828125 895.2000122070312 L 1121.300048828125 1003.2999877929688 Z" class="st2" style="fill: none; stroke: rgb(192, 193, 191); stroke-width: 10; stroke-miterlimit: 10;"/>
						<path d="M 934.0999755859375 1219.4000244140625 L 840.5 1165.300048828125 L 840.5 1057.300048828125 L 934.0999755859375 1003.2000122070312 L 1027.699951171875 1057.300048828125 L 1027.699951171875 1165.4000244140625 Z" class="st2" style="fill: none; stroke: rgb(192, 193, 191); stroke-width: 10; stroke-miterlimit: 10;"/>
						<path d="M 1214.9000244140625 1057.300048828125 L 1121.300048828125 1003.2999877929688 L 1121.300048828125 895.2000122070312 L 1214.9000244140625 841.2000122070312 L 1308.5 895.2000122070312 L 1308.5 1003.2999877929688 Z" class="st2" style="fill: none; stroke: rgb(192, 193, 191); stroke-width: 10; stroke-miterlimit: 10;"/>
					</g>
					<g>
						<path d="M 1308.5 895.2000122070312 L 1214.9000244140625 841.2000122070312 L 1214.9000244140625 733.0999755859375 L 1308.5 679.0999755859375 L 1402.0999755859375 733.0999755859375 L 1402.0999755859375 841.2000122070312 Z" class="st2" style="fill: none; stroke: rgb(192, 193, 191); stroke-width: 10; stroke-miterlimit: 10;"/>
						<path d="M 1589.300048828125 733.2000122070312 L 1495.699951171875 679.0999755859375 L 1495.699951171875 571.0999755859375 L 1589.300048828125 517 L 1682.9000244140625 571.0999755859375 L 1682.9000244140625 679.0999755859375 Z" class="st2" style="fill: none; stroke: rgb(192, 193, 191); stroke-width: 10; stroke-miterlimit: 10;"/>
						<path d="M 1495.5999755859375 895.2999877929688 L 1402.0999755859375 841.2000122070312 L 1402.0999755859375 733.0999755859375 L 1495.699951171875 679.0999755859375 L 1589.300048828125 733.2000122070312 L 1589.199951171875 841.2000122070312 Z" class="st2" style="fill: none; stroke: rgb(192, 193, 191); stroke-width: 10; stroke-miterlimit: 10;"/>
						<path d="M 1776.4000244140625 733.2000122070312 L 1682.9000244140625 679.2000122070312 L 1682.9000244140625 571.0999755859375 L 1776.5 517.0999755859375 L 1870.0999755859375 571.0999755859375 L 1870 679.2000122070312 Z" class="st2" style="fill: none; stroke: rgb(192, 193, 191); stroke-width: 10; stroke-miterlimit: 10;"/>
					</g>
				</g>
			</g>
		</g>
	</g>
</svg>