<?xml version="1.0" encoding="UTF-8" standalone="no"?>
<!DOCTYPE svg PUBLIC "-//W3C//DTD SVG 1.1//EN" "http://www.w3.org/Graphics/SVG/1.1/DTD/svg11.dtd">
<svg version="1.1" xmlns="http://www.w3.org/2000/svg" xmlns:xlink="http://www.w3.org/1999/xlink" preserveAspectRatio="xMidYMid meet" viewBox="0 0 640 640" width="640" height="640"><defs><path d="M23.98 42C23.98 43.1 23.09 43.99 21.99 43.99C20.89 43.99 19.99 43.1 19.99 42C19.99 40.9 20.89 40.01 21.99 40.01C21.99 40.01 21.99 40.01 21.99 40.01C23.31 40.6 23.98 41.27 23.98 42ZM29.7 16.18C38.45 14.91 46.57 20.99 47.83 29.74C49.09 38.48 43.02 46.6 34.27 47.86C34.17 47.87 34.08 47.87 33.98 47.89C34.01 47.88 34.25 47.85 34.28 47.84C33.18 48 32.17 47.24 32.01 46.15C31.85 45.06 32.61 44.04 33.71 43.88C33.71 43.88 33.7 43.88 33.7 43.88C33.71 43.88 33.71 43.88 33.71 43.88C40.27 42.93 44.82 36.85 43.88 30.29C42.93 23.73 36.85 19.18 30.29 20.12C23.73 21.07 19.18 27.15 20.12 33.71C20.12 33.71 20.12 33.72 20.13 33.72C20.12 33.72 20.12 33.72 20.12 33.72C20.12 33.72 20.12 33.72 20.12 33.72C20.28 34.81 19.52 35.82 18.42 35.98C17.33 36.14 16.32 35.38 16.16 34.29C16.16 34.32 16.2 34.56 16.2 34.59C16.19 34.49 16.16 34.4 16.15 34.3C16.14 34.3 16.14 34.3 16.15 34.3C19.35 23.06 23.87 17.02 29.7 16.18ZM51 10C52.64 10 53.97 11.32 53.99 12.96C53.99 12.97 53.99 13.04 53.99 13.05C53.97 14.69 52.64 16.01 51 16.01C49.34 16.01 47.99 14.67 47.99 13.01C47.99 13.01 47.99 13.01 47.99 13.01C48.89 11 49.89 10 51 10ZM42.01 64C40.01 64 23.99 64 21.99 64C13.64 64 8.82 62.03 5.34 58.52C1.91 55.05 0 50.22 0 42.01C0 40.01 0 23.99 0 21.99C0 13.78 1.91 8.95 5.34 5.48C8.82 1.97 13.64 0 21.99 0C23.99 0 40.01 0 42.01 0C50.36 0 55.18 1.97 58.66 5.48C58.88 5.71 59.09 5.95 59.29 6.19C59.72 6.56 59.99 7.09 59.99 7.7C59.99 8.8 59.09 9.7 57.99 9.7C57.38 9.7 56.85 9.42 56.48 9C56.48 9 56.46 9.02 56.46 9.02C56.25 8.78 56.06 8.52 55.83 8.29C52.79 5.22 48.3 4.01 40.99 4.01C39.19 4.01 24.8 4.01 23 4.01C15.7 4.01 11.21 5.22 8.17 8.29C5.17 11.33 4 15.83 4 23.01C4 24.8 4 39.2 4 41C4 48.18 5.17 52.67 8.17 55.71C11.21 58.78 15.7 60 23 60C24.8 60 39.19 60 40.99 60C48.3 60 52.79 58.78 55.83 55.71C58.83 52.67 59.99 48.18 59.99 41C59.99 39.2 59.99 24.81 59.99 23.01C59.99 21.26 59.92 19.67 59.77 18.23C59.77 18.23 59.78 18.22 59.78 18.22C59.67 17.12 60.47 16.14 61.58 16.02C62.68 15.9 63.68 16.71 63.79 17.81C63.79 17.84 63.79 17.87 63.79 17.9C63.79 17.9 63.79 17.9 63.8 17.9C63.92 19.17 64 20.51 64 21.99C64 23.99 64 40.01 64 42.01C64 50.22 62.09 55.05 58.66 58.52C58.66 58.52 58.66 58.52 58.66 58.52C53.12 62.17 47.58 64 42.01 64Z" id="f3bDeLKbs3"></path></defs><g><g><g><use xlink:href="#f3bDeLKbs3" opacity="1" fill="#da3a09" fill-opacity="1"></use><g><use xlink:href="#f3bDeLKbs3" opacity="1" fill-opacity="0" stroke="#000000" stroke-width="1" stroke-opacity="0"></use></g></g></g></g></svg>